<svg xmlns:dc="http://purl.org/dc/elements/1.1/" xmlns:cc="http://creativecommons.org/ns#" xmlns:rdf="http://www.w3.org/1999/02/22-rdf-syntax-ns#"  xmlns="http://www.w3.org/2000/svg" xmlns:sodipodi="http://sodipodi.sourceforge.net/DTD/sodipodi-0.dtd" xmlns:inkscape="http://www.inkscape.org/namespaces/inkscape" width="100%" height="100%" viewBox="-0.0692128403510812 0 432.995572897499 387.1428527832031" id="svg2" version="1.1" inkscape:version="0.91 r13725" sodipodi:docname="illus-hide-waste.svg" xmlns:xlink="http://www.w3.org/1999/xlink"><rect id="svgEditorBackground" x="0" y="0" width="432.857" height="387.143" style="fill: none; stroke: none;"/>
  <defs id="defs4"/>
  <sodipodi:namedview id="base" pagecolor="#ffffff" bordercolor="#666666" borderopacity="1.0" inkscape:pageopacity="0.0" inkscape:pageshadow="2" inkscape:zoom="0.98994949" inkscape:cx="196.64025" inkscape:cy="239.47737" inkscape:document-units="px" inkscape:current-layer="layer1" showgrid="false" fit-margin-top="0" fit-margin-left="0" fit-margin-right="0" fit-margin-bottom="0" inkscape:window-width="1920" inkscape:window-height="1036" inkscape:window-x="0" inkscape:window-y="22" inkscape:window-maximized="1"/>
  <metadata id="metadata7">
    <rdf:RDF>
      <cc:Work rdf:about="">
        <dc:format>image/svg+xml</dc:format>
        <dc:type rdf:resource="http://purl.org/dc/dcmitype/StillImage"/>
        <dc:title/>
      </cc:Work>
    </rdf:RDF>
  </metadata>
  <g inkscape:label="Calque 1" inkscape:groupmode="layer" id="layer1" transform="matrix(1, 0, 0, 1, -136.754, -392.607)">
    
    <ellipse transform="matrix(0.99557099,-0.09401275,-0.70028665,0.71386176,0,0)" ry="10.104825" rx="31.47159" cy="1072.7227" cx="997.05579" id="ellipse4285-9-7" style="opacity:1;fill:#75507b;fill-opacity:1;stroke:none;stroke-width:1.5;stroke-linecap:round;stroke-linejoin:round;stroke-miterlimit:4;stroke-dasharray:none;stroke-opacity:1"/>
    <path style="opacity:1;fill:#8f5902;fill-opacity:1;stroke:none;stroke-width:1;stroke-linecap:round;stroke-linejoin:round;stroke-miterlimit:4;stroke-dasharray:none;stroke-opacity:1" d="m 183.79914,674.50508 c 0,0 20.26833,-38.34374 38.34374,-38.34374 18.07542,0 38.34375,38.34375 38.34375,38.34375 0,0 -14.94475,7.82868 -38.34375,7.82868 -23.39899,-10e-6 -38.34374,-7.82869 -38.34374,-7.82869 z" id="rect3346" inkscape:connector-curvature="0" sodipodi:nodetypes="czczc"/>
    <path style="opacity:1;fill:#2e3436;fill-opacity:1;stroke:none;stroke-width:1;stroke-linecap:round;stroke-linejoin:round;stroke-miterlimit:4;stroke-dasharray:none;stroke-opacity:1" d="m 339.21484,692.76172 a 38.482143,15.481322 0 0 0 -1.25781,-1.13086 38.482143,15.481322 0 0 0 -1.91406,-1.34375 38.482143,15.481322 0 0 0 -2.23828,-1.25781 38.482143,15.481322 0 0 0 -2.53907,-1.16211 38.482143,15.481322 0 0 0 -2.81445,-1.05664 38.482143,15.481322 0 0 0 -3.0625,-0.93555 38.482143,15.481322 0 0 0 -3.27929,-0.80859 38.482143,15.481322 0 0 0 -3.4629,-0.67383 38.482143,15.481322 0 0 0 -3.61328,-0.5293 38.482143,15.481322 0 0 0 -3.72656,-0.38281 38.482143,15.481322 0 0 0 -3.80469,-0.23242 38.482143,15.481322 0 0 0 -3.84179,-0.0762 38.482143,15.481322 0 0 0 -2.72071,0.0371 38.482143,15.481322 0 0 0 -3.82031,0.1875 38.482143,15.481322 0 0 0 -3.75195,0.3379 38.482143,15.481322 0 0 0 -3.65039,0.48828 38.482143,15.481322 0 0 0 -3.51172,0.63281 38.482143,15.481322 0 0 0 -3.33594,0.76953 38.482143,15.481322 0 0 0 -3.12891,0.90039 38.482143,15.481322 0 0 0 -2.89062,1.02149 38.482143,15.481322 0 0 0 -2.62109,1.13281 38.482143,15.481322 0 0 0 -2.32813,1.23047 38.482143,15.481322 0 0 0 -2.01172,1.32031 38.482143,15.481322 0 0 0 -1.67187,1.39258 38.482143,15.481322 0 0 0 -1.32032,1.45507 38.482143,15.481322 0 0 0 -0.95117,1.49805 38.482143,15.481322 0 0 0 -0.39453,1.05078 37.5,12.5 0 0 0 36.23438,9.30664 37.5,12.5 0 0 0 37.5,-12.5 37.5,12.5 0 0 0 -0.0703,-0.67187 z" id="path4214" inkscape:connector-curvature="0"/>
    <path style="opacity:1;fill:#ffffff;fill-opacity:1;stroke:none;stroke-width:1;stroke-linecap:round;stroke-linejoin:round;stroke-miterlimit:4;stroke-dasharray:none;stroke-opacity:1" d="m 301.78516,680.93359 a 37.5,12.5 0 0 0 -37.5,12.5 37.5,12.5 0 0 0 1.26562,3.19336 38.482143,15.481322 0 0 1 0.39453,-1.05078 38.482143,15.481322 0 0 1 0.95117,-1.49805 38.482143,15.481322 0 0 1 1.32032,-1.45507 38.482143,15.481322 0 0 1 1.67187,-1.39258 38.482143,15.481322 0 0 1 2.01172,-1.32031 38.482143,15.481322 0 0 1 2.32813,-1.23047 38.482143,15.481322 0 0 1 2.62109,-1.13281 38.482143,15.481322 0 0 1 2.89062,-1.02149 38.482143,15.481322 0 0 1 3.12891,-0.90039 38.482143,15.481322 0 0 1 3.33594,-0.76953 38.482143,15.481322 0 0 1 3.51172,-0.63281 38.482143,15.481322 0 0 1 3.65039,-0.48828 38.482143,15.481322 0 0 1 3.75195,-0.3379 38.482143,15.481322 0 0 1 3.82031,-0.1875 38.482143,15.481322 0 0 1 2.72071,-0.0371 38.482143,15.481322 0 0 1 3.84179,0.0762 38.482143,15.481322 0 0 1 3.80469,0.23242 38.482143,15.481322 0 0 1 3.72656,0.38281 38.482143,15.481322 0 0 1 3.61328,0.5293 38.482143,15.481322 0 0 1 3.4629,0.67383 38.482143,15.481322 0 0 1 3.27929,0.80859 38.482143,15.481322 0 0 1 3.0625,0.93555 38.482143,15.481322 0 0 1 2.81445,1.05664 38.482143,15.481322 0 0 1 2.53907,1.16211 38.482143,15.481322 0 0 1 2.23828,1.25781 38.482143,15.481322 0 0 1 1.91406,1.34375 38.482143,15.481322 0 0 1 1.25781,1.13086 37.5,12.5 0 0 0 -37.42968,-11.82813 z" id="path3349" inkscape:connector-curvature="0"/>
    <ellipse transform="matrix(0.99557099,-0.09401275,-0.70028665,0.71386176,0,0)" ry="6.1772146" rx="19.239004" cy="1125.7266" cx="1259.844" id="ellipse4285-9" style="opacity:1;fill:#75507b;fill-opacity:1;stroke:none;stroke-width:1.5;stroke-linecap:round;stroke-linejoin:round;stroke-miterlimit:4;stroke-dasharray:none;stroke-opacity:1"/>
    <ellipse style="opacity:1;fill:#75507b;fill-opacity:1;stroke:none;stroke-width:1.5;stroke-linecap:round;stroke-linejoin:round;stroke-miterlimit:4;stroke-dasharray:none;stroke-opacity:1" id="path4277" cx="1233.3782" cy="1129.2495" rx="28.413443" ry="9.1229219" transform="matrix(0.99557099,-0.09401275,-0.70028665,0.71386176,0,0)"/>
    <path style="fill:#babdb6;fill-rule:evenodd;stroke:none;stroke-width:1px;stroke-linecap:butt;stroke-linejoin:miter;stroke-opacity:1" d="m 451.41988,655.90102 -14.44341,4.09514 c 0,0 0.20395,20.08209 9.30358,28.48973 l 16.61739,0.84574 c 9.16769,-7.6779 10.00352,-28.62287 10.00352,-28.62287 l -12.51412,-4.35137 -8.96696,-0.45637 z" id="path3353" inkscape:connector-curvature="0"/>
    <path style="fill:#e9b96e;fill-rule:evenodd;stroke:none;stroke-width:1px;stroke-linecap:butt;stroke-linejoin:miter;stroke-opacity:1" d="m 452.28057,600.72672 15.80633,-1.30044 -0.0323,-6.08184 -2.24633,-0.42848 2.13199,-1.35357 0.35341,-4.53192 -2.22669,-0.68026 1.60881,-1.14106 -0.90545,-4.6301 -13.9492,3.47169 z" id="path3355" inkscape:connector-curvature="0"/>
    <path style="fill:#8f5902;fill-rule:evenodd;stroke:none;stroke-width:1px;stroke-linecap:butt;stroke-linejoin:miter;stroke-opacity:1" d="m 456.63264,565.17612 -4.77198,93.76092 c 2.8531,1.27282 5.70619,1.51893 8.55929,0.43562 l 4.75403,-93.40831 c -2.17451,-1.60796 -4.69687,-2.52021 -8.54134,-0.78823 z" id="path3351" inkscape:connector-curvature="0" sodipodi:nodetypes="ccccc"/>
    <path style="fill:#e9b96e;fill-rule:evenodd;stroke:none;stroke-width:1px;stroke-linecap:butt;stroke-linejoin:miter;stroke-opacity:1" d="m 412.66744,504.79943 20.80008,26.53472 -17.57245,9.8138 2.70645,6.88668 c 0,0 -4.6335,-2.33885 -9.44165,6.89161 -1.27361,2.44501 11.32923,-1.83521 11.32923,-1.83521 l 3.07786,5.69325 -20.84425,19.9158 -26.52328,-2.78216 -3.0786,-31.35074 -12.29633,-28.93208 23.42338,-29.28255 z" id="path3375" inkscape:connector-curvature="0" sodipodi:nodetypes="ccccscccccccc"/>
    <ellipse transform="matrix(0.99565695,-0.09309798,-0.70379863,0.71039953,0,0)" ry="9.9074001" rx="31.008778" cy="1131.6978" cx="1213.368" id="ellipse4285" style="opacity:1;fill:#75507b;fill-opacity:1;stroke:none;stroke-width:1.5;stroke-linecap:round;stroke-linejoin:round;stroke-miterlimit:4;stroke-dasharray:none;stroke-opacity:1"/>
    <path style="fill:#2e3436;fill-rule:evenodd;stroke:none;stroke-width:1px;stroke-linecap:butt;stroke-linejoin:miter;stroke-opacity:1" d="m 408.23394,680.36639 -2.6217,7.93882 0.27676,9.28158 32.82125,-1.69325 -2.39736,-8.50374 -15.0572,-1.69485 -4.56057,-9.15386 z" id="path3381" inkscape:connector-curvature="0"/>
    <path style="fill:#204a87;fill-rule:evenodd;stroke:none;stroke-width:1px;stroke-linecap:butt;stroke-linejoin:miter;stroke-opacity:1" d="m 381.42231,619.88993 30.53928,36.48038 -5.92735,26.99358 20.58237,0.0116 5.66658,-33.16939 -15.06933,-31.73666 z" id="path3361" inkscape:connector-curvature="0" sodipodi:nodetypes="ccccccc"/>
    <path style="fill:#2e3436;fill-rule:evenodd;stroke:none;stroke-width:1px;stroke-linecap:butt;stroke-linejoin:miter;stroke-opacity:1" d="m 386.10093,680.31205 -6.04252,13.04303 0.14902,4.99778 20.72637,0.0966 -0.21289,-7.13969 -5.3384,-11.27447 z" id="path3379" inkscape:connector-curvature="0"/>
    <path style="fill:#204a87;fill-rule:evenodd;stroke:none;stroke-width:1px;stroke-linecap:butt;stroke-linejoin:miter;stroke-opacity:1" d="m 379.6679,614.59196 -5.01408,15.34443 5.50764,15.24746 -1.49047,11.73509 1.1576,27.94094 20.0747,-0.49392 5.74393,-29.72392 3.31459,-9.66492" id="path3359" inkscape:connector-curvature="0" sodipodi:nodetypes="cccccccc"/>
    <path style="fill:#e9b96e;fill-rule:evenodd;stroke:none;stroke-width:1px;stroke-linecap:butt;stroke-linejoin:miter;stroke-opacity:1" d="m 320.69446,561.98534 -21.76244,21.21154 3.64097,3.88888 9.47147,-8.81849 11.40225,10.74228 12.36957,-14.00817 z" id="path3363" inkscape:connector-curvature="0"/>
    <path style="fill:#fce94f;fill-rule:evenodd;stroke:none;stroke-width:1px;stroke-linecap:butt;stroke-linejoin:miter;stroke-opacity:1" d="m 453.14088,584.64556 -18.00525,1.31168 -20.90863,-12.1792 -22.35782,3.41297 -17.08994,-4.69668 -21.27542,5.08795 -23.08655,-7.7209 0.16503,22.48096 22.72601,5.27017 20.93616,-6.82472 2.64007,29.22873 42.13841,-0.0112 -0.78436,-30.84331 17.4104,12.59484 17.69859,-1.70582 z" id="path3357" inkscape:connector-curvature="0" sodipodi:nodetypes="cccccccccccccccc"/>
    <path style="fill:#eeeeec;fill-rule:evenodd;stroke:none;stroke-width:1px;stroke-linecap:butt;stroke-linejoin:miter;stroke-opacity:1" d="m 293.60404,575.3868 6.11646,14.56661 c 0,0 -24.96331,13.98061 -18.82431,29.30288 6.139,15.32229 26.35575,20.01398 37.12866,12.88554 10.77291,-7.12845 15.13431,-13.30935 14.92025,-20.48836 -0.21406,-7.17903 -23.77405,-22.36003 -23.77405,-22.36003 l 8.61015,-16.14025 c 0,0 -6.61846,-4.72987 -8.47875,1.07472 -0.57054,1.78026 -1.68113,4.14456 -1.68113,4.14456 0,0 1.66648,-6.89932 -1.65162,-7.51434 -3.17595,-0.58867 -2.91947,2.42041 -3.69739,5.98246 -0.87915,-1.69132 0.66455,-6.06196 -3.11513,-5.77932 -4.40141,0.32912 -5.55314,4.32553 -5.55314,4.32553 z" id="path3367" inkscape:connector-curvature="0" sodipodi:nodetypes="ccsssccscscsc"/>
    <circle style="opacity:1;fill:#2e3436;fill-opacity:1;stroke:none;stroke-width:1;stroke-linecap:round;stroke-linejoin:round;stroke-miterlimit:4;stroke-dasharray:none;stroke-opacity:1" id="path4189" cx="285.04568" cy="624.08746" r="3.4093297" transform="matrix(0.99955576,-0.02980413,0.02980413,0.99955576,0,0)"/>
    <path style="opacity:1;fill:#2e3436;fill-opacity:1;stroke:none;stroke-width:1;stroke-linecap:round;stroke-linejoin:round;stroke-miterlimit:4;stroke-dasharray:none;stroke-opacity:1" d="m 296.74415,604.48879 c 1.58558,-2.92517 10.00818,-3.84553 11.80418,-1.95781 l -3.73064,8.49574 c -0.67472,-0.50813 -2.06563,-0.5022 -2.82157,0.0841 z" id="rect4191" inkscape:connector-curvature="0" sodipodi:nodetypes="ccccc"/>
    <path sodipodi:nodetypes="ccccc" inkscape:connector-curvature="0" id="path4194" d="m 315.79864,614.15314 c 0.30164,4.89767 -3.00297,9.64951 -5.81716,10.31268 l -3.39211,-6.16089 c 0.73388,-0.31176 1.38555,-1.45167 1.26301,-2.34642 z" style="opacity:1;fill:#2e3436;fill-opacity:1;stroke:none;stroke-width:1;stroke-linecap:round;stroke-linejoin:round;stroke-miterlimit:4;stroke-dasharray:none;stroke-opacity:1"/>
    <path style="opacity:1;fill:#2e3436;fill-opacity:1;stroke:none;stroke-width:1;stroke-linecap:round;stroke-linejoin:round;stroke-miterlimit:4;stroke-dasharray:none;stroke-opacity:1" d="m 297.49201,624.8957 c -3.81781,-2.07614 -6.27498,-6.00412 -5.86353,-8.87031 l 7.76223,0.49556 c -0.097,0.79143 0.5644,1.92573 1.40055,2.26698 z" id="path4196" inkscape:connector-curvature="0" sodipodi:nodetypes="ccccc"/>
    <path style="fill:none;fill-rule:evenodd;stroke:#000000;stroke-width:1px;stroke-linecap:round;stroke-linejoin:round;stroke-opacity:1" d="m 299.50718,589.74462 c 3.04451,0.6911 8.02869,0.67916 10.09139,-0.49038" id="path4240" inkscape:connector-curvature="0" sodipodi:nodetypes="cc"/>
    <path style="fill:#e9b96e;fill-rule:evenodd;stroke:none;stroke-width:1px;stroke-linecap:butt;stroke-linejoin:miter;stroke-opacity:1" d="m 315.03602,579.52938 -9.05162,5.6357 0.17963,5.75596 14.24342,-7.3927" id="path3365" inkscape:connector-curvature="0" sodipodi:nodetypes="cccc"/>
    <path style="fill:none;fill-rule:evenodd;stroke:#000000;stroke-width:1.5;stroke-linecap:round;stroke-linejoin:round;stroke-miterlimit:4;stroke-dasharray:none;stroke-opacity:1" d="m 403.43685,531.00522 c 8.24726,-3.02507 6.41255,-5.24421 6.41255,-5.24421" id="path3369" inkscape:connector-curvature="0"/>
    <path style="fill:#2e3436;fill-rule:evenodd;stroke:none;stroke-width:1px;stroke-linecap:butt;stroke-linejoin:miter;stroke-opacity:1" d="m 402.89621,488.65491 12.62711,16.05937 -12.97917,-3.90061 8.04526,6.19153 -11.52995,-3.22922 -1.21505,7.18226 -18.77607,-6.58618 6.26526,18.39287 -8.6102,-1.17247 3.83595,8.81815 -3.84168,2.97297 3.10562,20.27359 -1.57203,7.19291 -6.02615,1.60888 -12.08345,-21.79239 4.30511,0.58623 -13.57525,-23.89173 3.67628,3.4634 -0.65995,-22.13302 2.3548,7.07582 7.06597,-26.65101 1.68341,8.52504 13.01188,-18.96766 1.64083,7.09711 12.11617,-1.07587 12.63855,-7.52289 8.90823,11.16803 -9.26029,0.99073 13.73571,5.30726 z" id="path3373" inkscape:connector-curvature="0" sodipodi:nodetypes="cccccccccccccccccccccccccccccc"/>
    <path style="fill:none;fill-rule:evenodd;stroke:#d3d7cf;stroke-width:2.5;stroke-linecap:round;stroke-linejoin:round;stroke-miterlimit:4;stroke-dasharray:none;stroke-opacity:1" d="m 455.69771,664.05954 -1.14616,16.43942" id="path4183" inkscape:connector-curvature="0" sodipodi:nodetypes="cc"/>
    <ellipse style="opacity:1;fill:#fcaf3e;fill-opacity:1;stroke:none;stroke-width:1;stroke-linecap:round;stroke-linejoin:round;stroke-miterlimit:4;stroke-dasharray:none;stroke-opacity:1" id="path4185" cx="306.90796" cy="666.36505" rx="7.3156862" ry="3.0935864" transform="matrix(0.93209975,-0.36220167,0.16741664,0.98588624,0,0)"/>
    <ellipse style="opacity:1;fill:#e9b96e;fill-opacity:1;stroke:none;stroke-width:1;stroke-linecap:round;stroke-linejoin:round;stroke-miterlimit:4;stroke-dasharray:none;stroke-opacity:1" id="path4242" cx="446.60117" cy="597.25995" rx="2.5001276" ry="2.6516504" transform="matrix(0.99955576,-0.02980413,0.02980413,0.99955576,0,0)"/>
    <ellipse ry="2.6516504" rx="2.5001276" cy="603.19458" cx="445.84357" id="ellipse4244" style="opacity:1;fill:#e9b96e;fill-opacity:1;stroke:none;stroke-width:1;stroke-linecap:round;stroke-linejoin:round;stroke-miterlimit:4;stroke-dasharray:none;stroke-opacity:1" transform="matrix(0.99955576,-0.02980413,0.02980413,0.99955576,0,0)"/>
    <ellipse style="opacity:1;fill:#e9b96e;fill-opacity:1;stroke:none;stroke-width:1;stroke-linecap:round;stroke-linejoin:round;stroke-miterlimit:4;stroke-dasharray:none;stroke-opacity:1" id="ellipse4246" cx="446.47491" cy="609.76056" rx="2.5001276" ry="2.6516504" transform="matrix(0.99955576,-0.02980413,0.02980413,0.99955576,0,0)"/>
    <ellipse ry="2.6516504" rx="2.5001276" cy="595.87097" cx="439.78262" id="ellipse4256" style="opacity:1;fill:#e9b96e;fill-opacity:1;stroke:none;stroke-width:1;stroke-linecap:round;stroke-linejoin:round;stroke-miterlimit:4;stroke-dasharray:none;stroke-opacity:1" transform="matrix(0.99955576,-0.02980413,0.02980413,0.99955576,0,0)"/>
  </g>
</svg>